PathFileType	4	(X/Y/Z)	46_2_98_p1_0-381_filt_butterworth.trc
DataRate	CameraRate	NumFrames	NumMarkers	Units	OrigDataRate	OrigDataStartFrame	OrigNumFrames
59.0	59.0	4	27	m	59.0	0	381
Frame#	Time	RHip			RKnee			RAnkle			RBigToe			RSmallToe			RHeel			LHip			LKnee			LAnkle			LBigToe			LSmallToe			LHeel			Neck			Head			Nose			RShoulder			RElbow			RWrist			RThumb			RIndex			RPinky			LShoulder			LElbow			LWrist			LThumb			LIndex			LPinky			
		X1	Y1	Z1	X2	Y2	Z2	X3	Y3	Z3	X4	Y4	Z4	X5	Y5	Z5	X6	Y6	Z6	X7	Y7	Z7	X8	Y8	Z8	X9	Y9	Z9	X10	Y10	Z10	X11	Y11	Z11	X12	Y12	Z12	X13	Y13	Z13	X14	Y14	Z14	X15	Y15	Z15	X16	Y16	Z16	X17	Y17	Z17	X18	Y18	Z18	X19	Y19	Z19	X20	Y20	Z20	X21	Y21	Z21	X22	Y22	Z22	X23	Y23	Z23	X24	Y24	Z24	X25	Y25	Z25	X26	Y26	Z26	X27	Y27	Z27	
0	0.0	0.3439547827936438	0.3977883438505922	0.6461782479364472	0.34327048045188185	0.42609760166090915	1.09402799648667	0.3434129761708049	0.4934431809516689	1.505662041499916	0.35963287351015044	0.3791632787882711	1.5439717251190341	0.41056323993951055	0.38551472512363233	1.5327735230462103	0.3119207708144159	0.590866481310363	1.5982209142576027	0.14266840228844838	0.39743802511906556	0.6581673488817369	0.14104043832413174	0.45683808277570814	1.0982729339541415	0.13426441328675628	0.5187818707956956	1.5382062252875668	0.19245231515197206	0.2960273542011148	1.4915894353757273	0.1404785928077202	0.34366773284417973	1.5120296946649292	0.12061812516326725	0.5920489110611677	1.591860012313178	0.27259025436736056	0.3858689452383679	0.14068122513338527	0.2835503004216737	0.293005774331685	-0.10720437289910763	0.2706062781200165	0.26525110087971426	0.025105141255746033	0.414839358874521	0.377462688999242	0.22952348674018377	0.49950110701319733	0.3094754862099385	0.46023150637998994	0.37105391748302596	0.19164305747060972	0.6314855315238824	0.2534688724657607	0.1686017925801623	0.6519501967484637	0.24355477933334918	0.15791416692656185	0.7139576607175568	0.2575517460390327	0.14930735337640266	0.7220834979944907	0.12043888217835201	0.3432827355785085	0.20831960806321176	0.0358195437324892	0.31399033385121217	0.4570710719704692	0.1588695446810428	0.1514871447481213	0.6002899881189266	0.2641391414311007	0.124796746818231	0.6252116879495363	0.2721960333010563	0.13614863772295682	0.6867027292074712	0.22922735698102642	0.1481403784400611	0.7317072334783237
1	0.0169491525423728	0.34825473851043337	0.3937119792600723	0.6437002795461712	0.34293944332534054	0.4262236212414447	1.0950520231510166	0.34173562596567125	0.5017669956381587	1.5119139579233902	0.3526330336352987	0.3821278281268873	1.5463824740531533	0.4066798275059549	0.39388796908074053	1.5378972096500045	0.31365633798600023	0.6001473252435421	1.6028874562233713	0.14304219170437227	0.39773251586734654	0.6580832255889657	0.14084642986928372	0.4563798409641322	1.0963787585139189	0.13426470060811238	0.5185410148334957	1.5379864208706808	0.19343188086983967	0.3056485464823827	1.500870891676872	0.1405076125967471	0.34484385818339736	1.5163789553397302	0.12338733415915211	0.5859731016017761	1.5889732234698108	0.2727075435727336	0.3861283106726279	0.14152832200965587	0.28496629053239964	0.2998113519807645	-0.10707710123517682	0.2706301191149975	0.2651951020926759	0.025168471076682755	0.41481302684201027	0.3774002935497129	0.2295008162815699	0.49481989885214267	0.3089167936408481	0.46373592669569386	0.36405149299814943	0.19916302746017953	0.6362847476824686	0.2541915016894113	0.16344953542909063	0.6515003606871335	0.24116990363848023	0.16015287037281628	0.7172868723130369	0.2569404022813087	0.15792055816899597	0.7262534378722988	0.12072697627120141	0.34381746599902296	0.20830077882409576	0.04541858843278933	0.30128107489251543	0.45273285302021204	0.16728281285215876	0.16221549625862533	0.5998745347020383	0.2755817158532618	0.12321115624030651	0.624003027103306	0.2790117767810599	0.13641713657174084	0.6854455052341178	0.23534861249362	0.152211149555021	0.730611201028903
2	0.0338983050847457	0.35155724529048377	0.389569161564258	0.643300889464472	0.3425909553211217	0.4262895391619117	1.0959491197846545	0.3402805030565495	0.51004854756643	1.5178058954393772	0.3481343809734079	0.3822249256770777	1.546910968532314	0.4034930185796634	0.39627844045148325	1.5395439726803373	0.3147101051646475	0.605873435360418	1.6055575922800238	0.14368117123370028	0.40155409397383157	0.6617486672612053	0.1407563245026853	0.45563162215722913	1.0950842383233605	0.13427459227634395	0.5184347826857137	1.5378327840655848	0.1935495058260983	0.3113035460283596	1.5050837567879414	0.1405676920283862	0.3451390165836139	1.5172071280783679	0.12619604540613985	0.5802324497566413	1.5857965265966776	0.2727814597591865	0.38625859660932627	0.1419141639927365	0.2858097456207756	0.3038597391337258	-0.10700012547001997	0.27064192017762356	0.26518297028424626	0.02519238637101195	0.4147362505674859	0.3773773575998611	0.2294740906622937	0.4916032190947973	0.30940760901547726	0.46562316987517416	0.35940173319272495	0.20272297800533776	0.6377095105811657	0.25644333025711713	0.16438565968329663	0.6606282393375382	0.24378939115199777	0.1671189749658383	0.7239053543613279	0.2579243117361257	0.17296887964258453	0.7323416585983172	0.12093847876880437	0.3440245011704782	0.20839515393875388	0.053477052512480264	0.2941571744352426	0.45155029371076133	0.1754225032506458	0.17791611093144052	0.6040951967737312	0.2864314155986138	0.12427797063510904	0.6253316520064935	0.2870069235911396	0.14235034767151059	0.6898576586395394	0.24233977438800514	0.15720711318485922	0.7313131352332288
3	0.0508474576271186	0.3534033748240648	0.3865900087402066	0.6461644744353776	0.3423914353136957	0.42612843749546064	1.0966610817216158	0.3392492938777748	0.5152930826172988	1.521019597521212	0.3465240572859069	0.38041082923283837	1.5460691148762435	0.4012665556604657	0.39303103117074645	1.5379096902322085	0.3150440273023451	0.6078401748845149	1.606186519117335	0.14439456742116938	0.4066184578910341	0.6695883345077641	0.14081441860903957	0.45458133051228466	1.0951589847349639	0.13429346211558624	0.5184435154888577	1.537761716590078	0.19238606589331184	0.31270464948366317	1.5040768196409355	0.14058007826923055	0.34465028359721217	1.5150080976491611	0.1284085407346623	0.5763493857092922	1.5824375887723554	0.2728196551079492	0.38640450324246556	0.14234130346847856	0.28604544257985837	0.3049681986420214	-0.10697849283057587	0.2706418859016977	0.26520867907688633	0.025172965683795862	0.4146290430157144	0.3773989732998275	0.22944930740329117	0.4896701660079314	0.3121099062872463	0.46583392188563894	0.3570852264877141	0.2029005595437029	0.6366718746263719	0.2598396967072396	0.17176678945124954	0.6812756772702786	0.2504178403996116	0.18081923527725538	0.7339706726233987	0.26055990080285524	0.19653126622022993	0.7409289817574372	0.12130317753977488	0.3442036042365463	0.20888510992688022	0.059425556305208974	0.2928530016620163	0.45360376267093183	0.18256965305902814	0.1984030997134814	0.6140938939418653	0.2952103624661685	0.1338733905986435	0.6316883333584731	0.29570903040068874	0.15745145073614264	0.7011969633169133	0.2491929020200671	0.1651247595890766	0.7347340424843777
